<svg fill="none" role="img" xmlns="http://www.w3.org/2000/svg" viewBox="0 0 300 65">
<path fill="#000" d="M82.5,30.4v1.8c0,0.8-0.7,1.5-1.5,1.5H58.5c0.5,3.5,4.2,5.2,8.6,5.2c4,0,8.1-1,10.4-1.7c1-0.3,2,0.4,2,1.4v8.4
	c0,0.5-0.3,1-0.8,1.3c-3.6,2-10.1,2.6-15.1,2.6C49,50.8,40.2,46,40.2,32.7s7.6-19.4,21.5-19.4C74.1,13.3,82.5,19.8,82.5,30.4z
	 M59.2,28.9h7.3c0.4,0,0.8-0.4,0.8-0.8c-0.3-2.7-2-4.4-4.4-4.4c-2.4,0-4.1,1.7-4.4,4.4C58.4,28.6,58.8,28.9,59.2,28.9z M127.6,14.2
	c0.8,0,1.5,0.7,1.5,1.5v31.2c0,12.3-7.2,18.1-27.1,18.1c-4.3,0-9.9-1-13.5-3.1c-0.5-0.3-0.8-0.8-0.8-1.3v-6.5c0-1,1-1.8,2-1.4
	c2.4,0.9,6.5,2.2,9.3,2.2c7,0,13-3.2,13-8.5v-5.5h-0.4c-0.2,0-0.3,0.1-0.4,0.2c-2.4,5.3-6.5,7.9-12.7,7.9c-8.7,0-14-8.3-14-17.9
	s5.4-17.9,14-17.9c6.2,0,10.4,2.6,12.7,7.9c0.1,0.1,0.2,0.2,0.4,0.2h0.4l0.4-5.8c0.1-0.8,0.7-1.4,1.5-1.4L127.6,14.2L127.6,14.2
	L127.6,14.2z M112.3,31.2c0-3.5-2-5.9-5.2-5.9c-2.9,0-4.8,2.4-4.8,5.9s1.9,5.9,4.8,5.9C110.4,37,112.3,34.7,112.3,31.2z M173.6,30.4
	v1.8c0,0.8-0.7,1.5-1.5,1.5h-22.5c0.5,3.5,4.2,5.2,8.6,5.2c4,0,8.1-1,10.4-1.7c1-0.3,2,0.4,2,1.4v8.4c0,0.5-0.3,1-0.8,1.3
	c-3.6,2-10.1,2.6-15.1,2.6c-14.5,0-23.4-4.8-23.4-18.1s7.6-19.4,21.5-19.4C165.2,13.3,173.6,19.8,173.6,30.4z M150.6,28.9h6.7
	c0.6,0,1.1-0.5,1-1.2c-0.4-2.5-2.1-4.1-4.3-4.1s-3.9,1.6-4.3,4.1C149.5,28.4,150,28.9,150.6,28.9z M215.5,49.9h-13.8
	c-0.8,0-1.5-0.7-1.5-1.5V30.4c0-3.1-0.7-4.7-3.4-4.7c-2.7,0-4.3,2.3-4.3,5.8v16.8c0,0.8-0.7,1.5-1.5,1.5h-13.7
	c-0.8,0-1.5-0.7-1.5-1.5V15.7c0-0.8,0.7-1.5,1.5-1.5h13.3c0.8,0,1.4,0.6,1.5,1.4l0.4,5.7h0.4c0.2,0,0.3-0.1,0.4-0.2
	c2.1-4.1,7-7.8,12.4-7.8c8.8,0,11.4,5.4,11.4,14.9v20.2C217,49.2,216.4,49.9,215.5,49.9L215.5,49.9z M264.1,2v46.4
	c0,0.8-0.7,1.5-1.5,1.5h-13.3c-0.8,0-1.5-0.6-1.5-1.4l-0.4-5.8h-0.4c-0.2,0-0.3,0.1-0.4,0.2c-2.4,5.3-6.6,7.9-12.6,7.9
	c-9.7,0-14.9-8-14.9-18.8s5.2-18.7,14.9-18.7c6,0,10.2,2.6,12.5,7.9c0.1,0.1,0.2,0.2,0.4,0.2h0.4V2c0-1.1,0.9-2,2-2h12.7
	C263.3,0,264.2,0.9,264.1,2L264.1,2z M236.9,32c0,4.3,2.1,6.5,5.5,6.5c3.4,0,5.3-2.2,5.3-6.5s-2-6.4-5.3-6.4S236.9,27.8,236.9,32z
	 M281.6,50.8c-6.9,0-10.8-1.8-14.4-3.4c-0.5-0.2-0.9-0.8-0.9-1.4v-6.5c0-1.1,1.2-1.8,2.2-1.4c2.4,1.2,6.3,2.7,10.3,2.7
	c1.7,0,3.5-0.3,3.5-1.6c0-2.9-15.3-4.7-15.3-14.8c0-8.3,8.1-12.1,17.9-12.1c4.6,0,8.7,1.5,12.2,3.3c0.5,0.3,0.8,0.8,0.8,1.3v6.3
	c0,1.2-1.3,1.9-2.3,1.3c-2-1.2-5.1-2.7-8-2.7c-1.4,0-2.8,0.7-2.8,1.4c0,2.9,15.2,4.7,15.2,14.9C299.9,47,291.6,50.8,281.6,50.8
	L281.6,50.8L281.6,50.8z M0.1,4V36c0,0.8,0.7,1.5,1.5,1.5h15.5V4c0-0.8-0.7-1.5-1.5-1.5h-14C0.8,2.5,0.1,3.2,0.1,4z M17.1,37.6v10.8
	c0,0.8,0.7,1.5,1.5,1.5h17.9c0.8,0,1.5-0.7,1.5-1.5v-9.3c0-0.8-0.7-1.5-1.5-1.5H17.1z"/>
</svg>